<svg xmlns="http://www.w3.org/2000/svg" viewBox="0 0 128 128" width="128" height="128">
  <defs>
    <!-- Gradiente para el paquete principal -->
    <linearGradient id="box-gradient" x1="0%" y1="0%" x2="100%" y2="100%">
      <stop offset="0%" stop-color="#3b82f6" />
      <stop offset="100%" stop-color="#60a5fa" />
    </linearGradient>
    
    <!-- Sombra sutil -->
    <filter id="shadow" x="-10%" y="-10%" width="120%" height="120%">
      <feGaussianBlur in="SourceAlpha" stdDeviation="2" />
      <feOffset dx="0" dy="1" result="offsetblur" />
      <feComponentTransfer>
        <feFuncA type="linear" slope="0.2" />
      </feComponentTransfer>
      <feMerge>
        <feMergeNode />
        <feMergeNode in="SourceGraphic" />
      </feMerge>
    </filter>
  </defs>
  
  <!-- Fondo circular en el color solicitado -->
  <circle cx="64" cy="64" r="64" fill="#0b1b48" />
  
  <!-- Grupo del paquete con QR, centrado y escalado apropiadamente -->
  <g filter="url(#shadow)" transform="translate(20, 20) scale(0.85)">
    <!-- Forma base del paquete -->
    <path d="M10,30 L90,30 L90,90 L10,90 Z" fill="url(#box-gradient)" />
    
    <!-- Tapa del paquete -->
    <path d="M10,30 L90,30 L105,10 L25,10 Z" fill="#2563eb" />
    
    <!-- Lado derecho del paquete -->
    <path d="M90,30 L105,10 L105,70 L90,90 Z" fill="#93c5fd" />
    
    <!-- Código QR estilizado en el paquete (diseño simplificado para favicons) -->
    <g transform="translate(20, 40)">
      <!-- Fondo blanco para el código QR -->
      <rect x="0" y="0" width="40" height="40" fill="white" rx="3" ry="3" />
      
      <!-- Módulos del código QR (simplificado para mejor visualización a tamaños pequeños) -->
      <!-- Fila 1 -->
      <rect x="5" y="5" width="5" height="5" fill="#0f172a" />
      <rect x="10" y="5" width="5" height="5" fill="#0f172a" />
      <rect x="15" y="5" width="5" height="5" fill="#0f172a" />
      <rect x="30" y="5" width="5" height="5" fill="#0f172a" />
      
      <!-- Fila 2 -->
      <rect x="5" y="10" width="5" height="5" fill="#0f172a" />
      <rect x="15" y="10" width="5" height="5" fill="#0f172a" />
      <rect x="30" y="10" width="5" height="5" fill="#0f172a" />
      
      <!-- Fila 3 -->
      <rect x="5" y="15" width="5" height="5" fill="#0f172a" />
      <rect x="15" y="15" width="5" height="5" fill="#0f172a" />
      <rect x="30" y="15" width="5" height="5" fill="#0f172a" />
      
      <!-- Fila 5 -->
      <rect x="5" y="25" width="5" height="5" fill="#0f172a" />
      <rect x="15" y="25" width="5" height="5" fill="#0f172a" />
      <rect x="25" y="25" width="5" height="5" fill="#0f172a" />
      
      <!-- Fila 6 -->
      <rect x="5" y="30" width="5" height="5" fill="#0f172a" />
      <rect x="15" y="30" width="5" height="5" fill="#0f172a" />
      <rect x="30" y="30" width="5" height="5" fill="#0f172a" />
    </g>
    

    
    <!-- Punto de marcador de ubicación superpuesto -->
    <circle cx="70" cy="50" r="12" fill="#38bdf8" />
    <circle cx="70" cy="50" r="5" fill="white" />
  </g>
</svg>